<svg width="170" height="50" viewBox="0 0 170 50" fill="none" xmlns="http://www.w3.org/2000/svg">
<g clip-path="url(#clip0_1_1107)">
<path d="M165.308 0H4.69212C2.10073 0 0 2.10073 0 4.69212V45.3079C0 47.8993 2.10073 50 4.69212 50H165.308C167.899 50 170 47.8993 170 45.3079V4.69212C170 2.10073 167.899 0 165.308 0Z" fill="white"/>
<path fill-rule="evenodd" clip-rule="evenodd" d="M65.2523 39.167H68.1095L61.8548 21.6586H58.9615L52.7068 39.167H55.468L57.0647 34.5199H63.6676L65.2523 39.167ZM60.2701 24.8375H60.4742L62.9833 32.2389H57.749L60.2701 24.8375ZM75.6856 25.7354C73.9088 25.7354 72.3721 26.6332 71.5798 28.1378H71.3877V25.9538H68.9026V43.4501H71.4837V37.165H71.6878C72.3721 38.5604 73.8488 39.3854 75.7096 39.3854C79.011 39.3854 81.1119 36.7525 81.1119 32.5543C81.1119 28.3562 79.011 25.7354 75.6856 25.7354ZM74.9532 37.0437C72.7923 37.0437 71.4357 35.3208 71.4357 32.5665C71.4357 29.8001 72.7923 28.0771 74.9652 28.0771C77.1502 28.0771 78.4588 29.7637 78.4588 32.5543C78.4588 35.3572 77.1502 37.0437 74.9532 37.0437ZM89.0722 25.7354C87.2954 25.7354 85.7587 26.6332 84.9664 28.1378H84.7743V25.9538H82.2892V43.4501H84.8703V37.165H85.0744C85.7587 38.5604 87.2354 39.3854 89.0962 39.3854C92.3976 39.3854 94.4985 36.7525 94.4985 32.5543C94.4985 28.3562 92.3976 25.7354 89.0722 25.7354ZM88.3398 37.0437C86.1789 37.0437 84.8223 35.3208 84.8223 32.5665C84.8223 29.8001 86.1789 28.0771 88.3518 28.0771C90.5368 28.0771 91.8454 29.7637 91.8454 32.5543C91.8454 35.3572 90.5368 37.0437 88.3398 37.0437ZM99.9624 34.4593C100.154 37.5897 102.736 39.5917 106.577 39.5917C110.683 39.5917 113.252 37.4926 113.252 34.1438C113.252 31.5109 111.788 30.0549 108.234 29.2177L106.325 28.7445C104.068 28.2106 103.156 27.4947 103.156 26.245C103.156 24.6676 104.572 23.6363 106.697 23.6363C108.714 23.6363 110.107 24.6434 110.359 26.2571H112.976C112.82 23.3087 110.251 21.2339 106.733 21.2339C102.952 21.2339 100.431 23.3087 100.431 26.427C100.431 28.9993 101.859 30.5281 104.993 31.2682L107.226 31.8142C109.519 32.3602 110.527 33.161 110.527 34.4957C110.527 36.0488 108.942 37.1772 106.781 37.1772C104.464 37.1772 102.856 36.1216 102.628 34.4593H99.9624ZM115.474 22.7506V26.0144H113.325V28.2106H115.474V35.6726C115.474 38.2206 116.614 39.2398 119.484 39.2398C119.988 39.2398 120.456 39.1792 120.864 39.1064V36.9345C120.504 36.9709 120.3 36.9952 119.904 36.9952C118.619 36.9952 118.055 36.3885 118.055 35.0053V28.2106H120.984V26.0144H118.055V22.7506H115.474ZM127.384 37.1044C125.139 37.1044 123.878 35.4421 123.878 32.5543C123.878 29.6909 125.139 28.0165 127.384 28.0165C129.617 28.0165 130.889 29.6909 130.889 32.5543C130.889 35.43 129.617 37.1044 127.384 37.1044ZM127.384 39.4218C131.202 39.4218 133.543 36.8374 133.543 32.5543C133.543 28.2955 131.19 25.699 127.384 25.699C123.566 25.699 121.213 28.2955 121.213 32.5543C121.213 36.8374 123.554 39.4218 127.384 39.4218ZM134.72 39.167H137.301V31.3653C137.301 29.5089 138.682 28.2591 140.626 28.2591C141.059 28.2591 141.851 28.3441 142.055 28.4169V25.8446C141.779 25.7718 141.287 25.7354 140.915 25.7354C139.21 25.7354 137.769 26.6818 137.397 27.9801H137.205V25.9538H134.72V39.167ZM147.866 27.9194C149.775 27.9194 151.024 29.2662 151.084 31.341H144.481C144.625 29.2783 145.957 27.9194 147.866 27.9194ZM151.072 35.5998C150.592 36.6312 149.523 37.2014 147.962 37.2014C145.897 37.2014 144.565 35.7333 144.481 33.4158V33.2702H153.713V32.3602C153.713 28.2106 151.516 25.699 147.878 25.699C144.193 25.699 141.852 28.3805 141.852 32.6029C141.852 36.8253 144.145 39.4218 147.89 39.4218C150.88 39.4218 152.969 37.9658 153.557 35.5998H151.072Z" fill="black"/>
<path fill-rule="evenodd" clip-rule="evenodd" d="M37.8567 25.743C37.9009 30.8154 42.2481 32.4922 42.3001 32.5093C42.2741 32.6275 41.6193 34.932 39.9888 37.2666C38.6272 39.3256 37.2006 41.3386 34.9348 41.3727C32.7339 41.4252 31.9933 40.0648 29.4689 40.0648C26.9211 40.0648 26.1325 41.3386 24.0213 41.4252C21.8633 41.5053 20.2145 39.2297 18.8036 37.1892C15.983 33.0254 13.7873 25.4554 16.7313 20.3041C18.1579 17.7777 20.7589 16.1508 23.5393 16.1075C25.6999 16.0628 27.7046 17.5821 29.0324 17.5821C30.3342 17.5821 32.8131 15.7648 35.3687 16.0366C36.438 16.0681 39.4808 16.4633 41.4439 19.3561C41.2854 19.4519 37.8191 21.5109 37.8567 25.743ZM33.6992 13.2975C32.5143 14.7103 30.6187 15.791 28.7725 15.6518C28.5309 13.7452 29.4663 11.7178 30.5135 10.4809C31.6971 9.07718 33.7525 8.00176 35.396 7.92822C35.6117 9.90968 34.8347 11.8622 33.6992 13.2975Z" fill="black"/>
<path d="M60.31 15.1C59.8033 15.1 59.3667 15.0433 59 14.93C58.64 14.8167 58.3433 14.6667 58.11 14.48C57.8767 14.2933 57.7 14.0867 57.58 13.86C57.4667 13.6267 57.3967 13.3967 57.37 13.17C57.3633 13.11 57.3833 13.06 57.43 13.02C57.4767 12.98 57.53 12.96 57.59 12.96H58.87C58.95 12.96 59.01 12.9733 59.05 13C59.0967 13.0267 59.14 13.0733 59.18 13.14C59.2533 13.3 59.3767 13.43 59.55 13.53C59.73 13.6233 59.9733 13.67 60.28 13.67C60.52 13.67 60.7267 13.64 60.9 13.58C61.0733 13.52 61.2067 13.4333 61.3 13.32C61.4 13.2 61.45 13.06 61.45 12.9C61.45 12.64 61.3533 12.4433 61.16 12.31C60.9667 12.1767 60.6933 12.11 60.34 12.11H59.61C59.5367 12.11 59.4767 12.0867 59.43 12.04C59.3833 11.9867 59.36 11.9233 59.36 11.85V11.05C59.36 10.9767 59.3833 10.9133 59.43 10.86C59.4767 10.8067 59.5367 10.78 59.61 10.78H60.33C60.6033 10.78 60.8267 10.7233 61 10.61C61.1733 10.49 61.26 10.3067 61.26 10.06C61.26 9.92 61.22 9.79667 61.14 9.69C61.0667 9.57667 60.9567 9.49 60.81 9.43C60.67 9.37 60.4967 9.34 60.29 9.34C59.9967 9.34 59.76 9.38667 59.58 9.48C59.4067 9.57333 59.2967 9.70667 59.25 9.88C59.2167 9.94 59.18 9.98667 59.14 10.02C59.1 10.0467 59.0433 10.06 58.97 10.06H57.65C57.59 10.06 57.5367 10.04 57.49 10C57.45 9.95333 57.4333 9.9 57.44 9.84C57.46 9.60667 57.5267 9.37333 57.64 9.14C57.76 8.90667 57.93 8.7 58.15 8.52C58.3767 8.33333 58.67 8.18333 59.03 8.07C59.39 7.95667 59.8233 7.9 60.33 7.9C60.9033 7.9 61.3933 7.99333 61.8 8.18C62.2133 8.36 62.5333 8.6 62.76 8.9C62.9867 9.2 63.1 9.53 63.1 9.89C63.1 10.0567 63.0767 10.23 63.03 10.41C62.9833 10.5833 62.9033 10.75 62.79 10.91C62.6833 11.0633 62.5233 11.2 62.31 11.32C62.5633 11.44 62.76 11.59 62.9 11.77C63.0467 11.95 63.15 12.1433 63.21 12.35C63.2767 12.5567 63.31 12.7633 63.31 12.97C63.31 13.3967 63.1867 13.77 62.94 14.09C62.7 14.4033 62.3567 14.65 61.91 14.83C61.4633 15.01 60.93 15.1 60.31 15.1ZM65.859 15.1C65.499 15.1 65.1757 15.0333 64.889 14.9C64.609 14.76 64.3857 14.5733 64.219 14.34C64.0523 14.1067 63.969 13.8433 63.969 13.55C63.969 13.0767 64.1623 12.7033 64.549 12.43C64.9357 12.15 65.449 11.96 66.089 11.86L67.339 11.67V11.53C67.339 11.29 67.289 11.1067 67.189 10.98C67.089 10.8533 66.9057 10.79 66.639 10.79C66.4523 10.79 66.299 10.8267 66.179 10.9C66.0657 10.9733 65.9757 11.0733 65.909 11.2C65.849 11.2867 65.7657 11.33 65.659 11.33H64.539C64.4657 11.33 64.409 11.31 64.369 11.27C64.329 11.2233 64.3123 11.17 64.319 11.11C64.319 10.99 64.3623 10.8533 64.449 10.7C64.5423 10.54 64.6823 10.3833 64.869 10.23C65.0557 10.0767 65.2957 9.95 65.589 9.85C65.8823 9.75 66.2357 9.7 66.649 9.7C67.0823 9.7 67.4523 9.75 67.759 9.85C68.0657 9.95 68.3123 10.09 68.499 10.27C68.6923 10.45 68.8357 10.6633 68.929 10.91C69.0223 11.15 69.069 11.4167 69.069 11.71V14.75C69.069 14.8233 69.0423 14.8833 68.989 14.93C68.9423 14.9767 68.8857 15 68.819 15H67.659C67.5857 15 67.5257 14.9767 67.479 14.93C67.4323 14.8833 67.409 14.8233 67.409 14.75V14.4C67.3223 14.5267 67.2057 14.6433 67.059 14.75C66.9123 14.8567 66.739 14.94 66.539 15C66.3457 15.0667 66.119 15.1 65.859 15.1ZM66.329 13.96C66.5223 13.96 66.6957 13.92 66.849 13.84C67.009 13.7533 67.1323 13.6233 67.219 13.45C67.3123 13.27 67.359 13.0467 67.359 12.78V12.64L66.509 12.79C66.1957 12.8433 65.9657 12.9267 65.819 13.04C65.679 13.1467 65.609 13.2733 65.609 13.42C65.609 13.5333 65.6423 13.63 65.709 13.71C65.7757 13.79 65.8623 13.8533 65.969 13.9C66.0757 13.94 66.1957 13.96 66.329 13.96ZM70.4474 15C70.3741 15 70.3141 14.9767 70.2674 14.93C70.2208 14.8833 70.1974 14.8233 70.1974 14.75V10.05C70.1974 9.97667 70.2208 9.91667 70.2674 9.87C70.3141 9.82333 70.3741 9.8 70.4474 9.8H72.7874C73.5808 9.8 74.1574 9.93333 74.5174 10.2C74.8841 10.4667 75.0674 10.8267 75.0674 11.28C75.0674 11.5333 75.0174 11.74 74.9174 11.9C74.8174 12.06 74.6841 12.1933 74.5174 12.3C74.7374 12.4133 74.9108 12.57 75.0374 12.77C75.1641 12.97 75.2274 13.2 75.2274 13.46C75.2274 13.94 75.0408 14.3167 74.6674 14.59C74.2941 14.8633 73.7141 15 72.9274 15H70.4474ZM71.8174 13.93H72.8374C73.0441 13.93 73.2108 13.8933 73.3374 13.82C73.4641 13.74 73.5274 13.6133 73.5274 13.44C73.5274 13.2667 73.4674 13.1433 73.3474 13.07C73.2341 12.99 73.0641 12.95 72.8374 12.95H71.8174V13.93ZM71.8174 11.83H72.8174C73.0241 11.83 73.1874 11.79 73.3074 11.71C73.4341 11.6233 73.4974 11.4967 73.4974 11.33C73.4974 11.1567 73.4341 11.0367 73.3074 10.97C73.1874 10.9033 73.0241 10.87 72.8174 10.87H71.8174V11.83ZM77.8219 15.1C77.4619 15.1 77.1385 15.0333 76.8519 14.9C76.5719 14.76 76.3485 14.5733 76.1819 14.34C76.0152 14.1067 75.9319 13.8433 75.9319 13.55C75.9319 13.0767 76.1252 12.7033 76.5119 12.43C76.8985 12.15 77.4119 11.96 78.0519 11.86L79.3019 11.67V11.53C79.3019 11.29 79.2519 11.1067 79.1519 10.98C79.0519 10.8533 78.8685 10.79 78.6019 10.79C78.4152 10.79 78.2619 10.8267 78.1419 10.9C78.0285 10.9733 77.9385 11.0733 77.8719 11.2C77.8119 11.2867 77.7285 11.33 77.6219 11.33H76.5019C76.4285 11.33 76.3719 11.31 76.3319 11.27C76.2919 11.2233 76.2752 11.17 76.2819 11.11C76.2819 10.99 76.3252 10.8533 76.4119 10.7C76.5052 10.54 76.6452 10.3833 76.8319 10.23C77.0185 10.0767 77.2585 9.95 77.5519 9.85C77.8452 9.75 78.1985 9.7 78.6119 9.7C79.0452 9.7 79.4152 9.75 79.7219 9.85C80.0285 9.95 80.2752 10.09 80.4619 10.27C80.6552 10.45 80.7985 10.6633 80.8919 10.91C80.9852 11.15 81.0319 11.4167 81.0319 11.71V14.75C81.0319 14.8233 81.0052 14.8833 80.9519 14.93C80.9052 14.9767 80.8485 15 80.7819 15H79.6219C79.5485 15 79.4885 14.9767 79.4419 14.93C79.3952 14.8833 79.3719 14.8233 79.3719 14.75V14.4C79.2852 14.5267 79.1685 14.6433 79.0219 14.75C78.8752 14.8567 78.7019 14.94 78.5019 15C78.3085 15.0667 78.0819 15.1 77.8219 15.1ZM78.2919 13.96C78.4852 13.96 78.6585 13.92 78.8119 13.84C78.9719 13.7533 79.0952 13.6233 79.1819 13.45C79.2752 13.27 79.3219 13.0467 79.3219 12.78V12.64L78.4719 12.79C78.1585 12.8433 77.9285 12.9267 77.7819 13.04C77.6419 13.1467 77.5719 13.2733 77.5719 13.42C77.5719 13.5333 77.6052 13.63 77.6719 13.71C77.7385 13.79 77.8252 13.8533 77.9319 13.9C78.0385 13.94 78.1585 13.96 78.2919 13.96ZM82.4103 15C82.337 15 82.277 14.9767 82.2303 14.93C82.1836 14.8833 82.1603 14.8233 82.1603 14.75V10.05C82.1603 9.97667 82.1836 9.91667 82.2303 9.87C82.277 9.82333 82.337 9.8 82.4103 9.8H83.5903C83.657 9.8 83.7136 9.82333 83.7603 9.87C83.8136 9.91667 83.8403 9.97667 83.8403 10.05V11.71H85.6403V10.05C85.6403 9.97667 85.6636 9.91667 85.7103 9.87C85.757 9.82333 85.817 9.8 85.8903 9.8H87.0703C87.137 9.8 87.1936 9.82333 87.2403 9.87C87.2936 9.91667 87.3203 9.97667 87.3203 10.05V14.75C87.3203 14.8233 87.2936 14.8833 87.2403 14.93C87.1936 14.9767 87.137 15 87.0703 15H85.8903C85.817 15 85.757 14.9767 85.7103 14.93C85.6636 14.8833 85.6403 14.8233 85.6403 14.75V13.02H83.8403V14.75C83.8403 14.8233 83.8136 14.8833 83.7603 14.93C83.7136 14.9767 83.657 15 83.5903 15H82.4103ZM90.1073 15C90.0406 15 89.9806 14.9767 89.9273 14.93C89.8806 14.8833 89.8573 14.8233 89.8573 14.75V11.11H88.3373C88.2706 11.11 88.2106 11.0867 88.1573 11.04C88.1106 10.9933 88.0873 10.9333 88.0873 10.86V10.05C88.0873 9.97667 88.1106 9.91667 88.1573 9.87C88.2106 9.82333 88.2706 9.8 88.3373 9.8H93.0373C93.1039 9.8 93.1606 9.82333 93.2073 9.87C93.2606 9.91667 93.2873 9.97667 93.2873 10.05V10.86C93.2873 10.9333 93.2606 10.9933 93.2073 11.04C93.1606 11.0867 93.1039 11.11 93.0373 11.11H91.5173V14.75C91.5173 14.8233 91.4939 14.8833 91.4473 14.93C91.4006 14.9767 91.3406 15 91.2673 15H90.1073ZM95.5758 15.1C95.2158 15.1 94.8924 15.0333 94.6058 14.9C94.3258 14.76 94.1024 14.5733 93.9358 14.34C93.7691 14.1067 93.6858 13.8433 93.6858 13.55C93.6858 13.0767 93.8791 12.7033 94.2658 12.43C94.6524 12.15 95.1658 11.96 95.8058 11.86L97.0558 11.67V11.53C97.0558 11.29 97.0058 11.1067 96.9058 10.98C96.8058 10.8533 96.6224 10.79 96.3558 10.79C96.1691 10.79 96.0158 10.8267 95.8958 10.9C95.7824 10.9733 95.6924 11.0733 95.6258 11.2C95.5658 11.2867 95.4824 11.33 95.3758 11.33H94.2558C94.1824 11.33 94.1258 11.31 94.0858 11.27C94.0458 11.2233 94.0291 11.17 94.0358 11.11C94.0358 10.99 94.0791 10.8533 94.1658 10.7C94.2591 10.54 94.3991 10.3833 94.5858 10.23C94.7724 10.0767 95.0124 9.95 95.3058 9.85C95.5991 9.75 95.9524 9.7 96.3658 9.7C96.7991 9.7 97.1691 9.75 97.4758 9.85C97.7824 9.95 98.0291 10.09 98.2158 10.27C98.4091 10.45 98.5524 10.6633 98.6458 10.91C98.7391 11.15 98.7858 11.4167 98.7858 11.71V14.75C98.7858 14.8233 98.7591 14.8833 98.7058 14.93C98.6591 14.9767 98.6024 15 98.5358 15H97.3758C97.3024 15 97.2424 14.9767 97.1958 14.93C97.1491 14.8833 97.1258 14.8233 97.1258 14.75V14.4C97.0391 14.5267 96.9224 14.6433 96.7758 14.75C96.6291 14.8567 96.4558 14.94 96.2558 15C96.0624 15.0667 95.8358 15.1 95.5758 15.1ZM96.0458 13.96C96.2391 13.96 96.4124 13.92 96.5658 13.84C96.7258 13.7533 96.8491 13.6233 96.9358 13.45C97.0291 13.27 97.0758 13.0467 97.0758 12.78V12.64L96.2258 12.79C95.9124 12.8433 95.6824 12.9267 95.5358 13.04C95.3958 13.1467 95.3258 13.2733 95.3258 13.42C95.3258 13.5333 95.3591 13.63 95.4258 13.71C95.4924 13.79 95.5791 13.8533 95.6858 13.9C95.7924 13.94 95.9124 13.96 96.0458 13.96ZM99.7342 15C99.6676 15 99.6142 14.9833 99.5742 14.95C99.5342 14.91 99.5142 14.86 99.5142 14.8C99.5142 14.76 99.5276 14.7167 99.5542 14.67L101.164 12.31L99.7842 10.14C99.7776 10.12 99.7676 10.0967 99.7542 10.07C99.7409 10.0433 99.7342 10.02 99.7342 10C99.7342 9.94 99.7542 9.89333 99.7942 9.86C99.8409 9.82 99.8942 9.8 99.9542 9.8H101.234C101.314 9.8 101.374 9.82 101.414 9.86C101.461 9.89333 101.494 9.92667 101.514 9.96L102.604 11.71H103.064V10.05C103.064 9.97667 103.088 9.91667 103.134 9.87C103.188 9.82333 103.248 9.8 103.314 9.8H104.474C104.548 9.8 104.608 9.82333 104.654 9.87C104.701 9.91667 104.724 9.97667 104.724 10.05V11.71H105.184L106.274 9.96C106.294 9.92667 106.328 9.89333 106.374 9.86C106.421 9.82 106.481 9.8 106.554 9.8H107.834C107.894 9.8 107.944 9.82 107.984 9.86C108.031 9.89333 108.054 9.94 108.054 10C108.054 10.02 108.048 10.0433 108.034 10.07C108.028 10.0967 108.018 10.12 108.004 10.14L106.624 12.31L108.234 14.67C108.261 14.71 108.274 14.7533 108.274 14.8C108.274 14.86 108.254 14.91 108.214 14.95C108.174 14.9833 108.121 15 108.054 15H106.644C106.558 15 106.491 14.98 106.444 14.94C106.404 14.9 106.374 14.8667 106.354 14.84L105.164 13.02H104.724V14.75C104.724 14.8233 104.701 14.8833 104.654 14.93C104.608 14.9767 104.548 15 104.474 15H103.314C103.248 15 103.188 14.9767 103.134 14.93C103.088 14.8833 103.064 14.8233 103.064 14.75V13.02H102.624L101.434 14.84C101.421 14.8667 101.391 14.9 101.344 14.94C101.298 14.98 101.231 15 101.144 15H99.7342ZM109.295 15C109.228 15 109.172 14.9767 109.125 14.93C109.078 14.8833 109.055 14.8267 109.055 14.76V10.05C109.055 9.97667 109.078 9.91667 109.125 9.87C109.172 9.82333 109.232 9.8 109.305 9.8H110.485C110.552 9.8 110.608 9.82333 110.655 9.87C110.708 9.91667 110.735 9.97667 110.735 10.05V13.7L110.285 13.48L112.755 9.96C112.788 9.91333 112.828 9.87667 112.875 9.85C112.922 9.81667 112.975 9.8 113.035 9.8H114.105C114.172 9.8 114.228 9.82333 114.275 9.87C114.322 9.91667 114.345 9.97333 114.345 10.04V14.75C114.345 14.8233 114.322 14.8833 114.275 14.93C114.228 14.9767 114.168 15 114.095 15H112.915C112.842 15 112.782 14.9767 112.735 14.93C112.688 14.8833 112.665 14.8233 112.665 14.75V11.21L113.125 11.3L110.635 14.84C110.608 14.8867 110.572 14.9267 110.525 14.96C110.478 14.9867 110.422 15 110.355 15H109.295ZM117.002 15C116.935 15 116.875 14.9767 116.822 14.93C116.775 14.8833 116.752 14.8233 116.752 14.75V11.11H115.232C115.165 11.11 115.105 11.0867 115.052 11.04C115.005 10.9933 114.982 10.9333 114.982 10.86V10.05C114.982 9.97667 115.005 9.91667 115.052 9.87C115.105 9.82333 115.165 9.8 115.232 9.8H119.932C119.998 9.8 120.055 9.82333 120.102 9.87C120.155 9.91667 120.182 9.97667 120.182 10.05V10.86C120.182 10.9333 120.155 10.9933 120.102 11.04C120.055 11.0867 119.998 11.11 119.932 11.11H118.412V14.75C118.412 14.8233 118.388 14.8833 118.342 14.93C118.295 14.9767 118.235 15 118.162 15H117.002ZM121.15 15C121.084 15 121.027 14.9767 120.98 14.93C120.934 14.8833 120.91 14.8267 120.91 14.76V10.05C120.91 9.97667 120.934 9.91667 120.98 9.87C121.027 9.82333 121.087 9.8 121.16 9.8H122.34C122.407 9.8 122.464 9.82333 122.51 9.87C122.564 9.91667 122.59 9.97667 122.59 10.05V13.7L122.14 13.48L124.61 9.96C124.644 9.91333 124.684 9.87667 124.73 9.85C124.777 9.81667 124.83 9.8 124.89 9.8H125.96C126.027 9.8 126.084 9.82333 126.13 9.87C126.177 9.91667 126.2 9.97333 126.2 10.04V14.75C126.2 14.8233 126.177 14.8833 126.13 14.93C126.084 14.9767 126.024 15 125.95 15H124.77C124.697 15 124.637 14.9767 124.59 14.93C124.544 14.8833 124.52 14.8233 124.52 14.75V11.21L124.98 11.3L122.49 14.84C122.464 14.8867 122.427 14.9267 122.38 14.96C122.334 14.9867 122.277 15 122.21 15H121.15ZM131.596 15.1C131.13 15.1 130.743 15.05 130.436 14.95C130.136 14.85 129.896 14.72 129.716 14.56C129.536 14.4 129.406 14.2333 129.326 14.06C129.253 13.88 129.206 13.72 129.186 13.58C129.18 13.5267 129.196 13.4833 129.236 13.45C129.276 13.4167 129.32 13.4 129.366 13.4H130.526C130.6 13.4 130.653 13.4133 130.686 13.44C130.726 13.4667 130.76 13.5033 130.786 13.55C130.846 13.6833 130.943 13.78 131.076 13.84C131.216 13.9 131.396 13.93 131.616 13.93C131.77 13.93 131.903 13.91 132.016 13.87C132.136 13.83 132.226 13.77 132.286 13.69C132.346 13.61 132.376 13.51 132.376 13.39C132.376 13.2233 132.326 13.0967 132.226 13.01C132.126 12.9167 131.953 12.87 131.706 12.87H131.146C131.086 12.87 131.036 12.85 130.996 12.81C130.956 12.7633 130.936 12.71 130.936 12.65V12.08C130.936 12.02 130.956 11.97 130.996 11.93C131.036 11.8833 131.086 11.86 131.146 11.86H131.686C131.893 11.86 132.043 11.8233 132.136 11.75C132.23 11.6767 132.276 11.5633 132.276 11.41C132.276 11.3167 132.253 11.23 132.206 11.15C132.16 11.07 132.086 11.0067 131.986 10.96C131.886 10.9067 131.75 10.88 131.576 10.88C131.33 10.88 131.153 10.9167 131.046 10.99C130.946 11.0567 130.863 11.1633 130.796 11.31C130.77 11.3567 130.736 11.3933 130.696 11.42C130.663 11.4467 130.61 11.46 130.536 11.46H129.416C129.363 11.46 129.32 11.4433 129.286 11.41C129.253 11.3767 129.236 11.3333 129.236 11.28C129.256 11.1067 129.306 10.93 129.386 10.75C129.473 10.5633 129.606 10.39 129.786 10.23C129.966 10.07 130.203 9.94333 130.496 9.85C130.79 9.75 131.156 9.7 131.596 9.7C132.163 9.7 132.613 9.77 132.946 9.91C133.286 10.0433 133.53 10.2233 133.676 10.45C133.823 10.67 133.896 10.9133 133.896 11.18C133.896 11.4067 133.85 11.6133 133.756 11.8C133.663 11.9867 133.496 12.14 133.256 12.26C133.556 12.3733 133.763 12.5467 133.876 12.78C133.99 13.0133 134.046 13.2633 134.046 13.53C134.046 13.85 133.946 14.1267 133.746 14.36C133.553 14.5933 133.273 14.7767 132.906 14.91C132.54 15.0367 132.103 15.1 131.596 15.1Z" fill="#0E2F4B"/>
</g>
<defs>
<clipPath id="clip0_1_1107">
<rect width="170" height="50" fill="white"/>
</clipPath>
</defs>
</svg>
