<svg width="170" height="50" viewBox="0 0 170 50" fill="none" xmlns="http://www.w3.org/2000/svg">
<g clip-path="url(#clip0_1_1081)">
<path fill-rule="evenodd" clip-rule="evenodd" d="M5.72391 0H164.276C167.437 0 170 2.56268 170 5.72391V44.2761C170 47.4373 167.437 50 164.276 50H5.72391C2.56268 50 0 47.4373 0 44.2761L0 5.72391C0 2.56268 2.56268 0 5.72391 0Z" fill="white"/>
<path fill-rule="evenodd" clip-rule="evenodd" d="M123.47 22.3867L129.951 22.3867C129.951 22.3867 133.683 23.0177 133.683 27.2765C133.683 31.5352 129.951 32.1662 129.951 32.1662H123.47V22.3867ZM124.728 24.7523V30.0004H129.128C129.128 30.0004 131.13 30.0004 131.13 27.3763C131.13 24.7523 129.128 24.7523 129.128 24.7523H124.728Z" fill="black"/>
<path d="M125.185 22.3867H122.898V38.2958H125.185V22.3867Z" fill="black"/>
<path d="M137.303 22.3867H135.017V38.2958H137.303V22.3867Z" fill="black"/>
<path fill-rule="evenodd" clip-rule="evenodd" d="M145.778 37.1582C145.148 37.6747 144.141 38.1608 142.551 38.2595C138.908 38.4857 138.906 35.1813 138.906 34.9584C138.906 34.7356 138.726 32.0408 141.624 31.6124C143.676 31.3091 145.114 31.8145 145.778 32.1354V31.6679C145.615 31.0489 145.11 29.9114 143.594 29.9114C141.512 29.9114 141.052 31.0302 141.052 31.0302L139.148 29.9114C139.148 29.9114 140.214 27.7275 143.411 27.7275C147.388 27.7275 148.065 30.4536 148.065 31.3717C148.065 31.3762 148.065 31.3806 148.064 31.3851V38.2906H145.778V37.1582ZM145.615 33.7506C145.615 33.7506 141.21 32.5705 141.056 35.0302C140.903 37.4899 145.282 36.3088 145.674 34.5651C145.674 34.0107 145.615 33.7506 145.615 33.7506Z" fill="black"/>
<path fill-rule="evenodd" clip-rule="evenodd" d="M152.355 37.692L148.278 28.0684H150.565L153.498 34.9931L156.408 28.1234H158.694L152.508 42.7274H150.222L152.355 37.692Z" fill="black"/>
<path fill-rule="evenodd" clip-rule="evenodd" d="M117.78 31.7873L110.548 34.7579C110.548 34.7579 111.015 36.4009 113.189 36.412C114.892 36.4206 115.853 34.912 115.853 34.912L117.688 36.1471C117.688 36.1471 116.207 38.5271 113.175 38.5271C109.449 38.5271 107.808 35.2885 107.808 33.1853C107.808 31.1589 109.11 27.7275 112.944 27.7275C116.777 27.7275 117.78 31.7873 117.78 31.7873ZM115.028 30.9457C115.028 30.9457 114.118 29.5698 112.723 29.8236C109.771 30.3603 110.143 32.9277 110.143 32.9277L115.028 30.9457Z" fill="black"/>
<path d="M106.797 22.3867H104.378V38.2624H106.797V22.3867Z" fill="black"/>
<path fill-rule="evenodd" clip-rule="evenodd" d="M100.507 28.0726L102.743 28.0918V38.1088C102.743 40.6682 101.21 43.3698 97.601 43.3698C93.9921 43.3698 92.8265 40.1914 92.8265 40.1914L94.8801 39.3329C94.8801 39.3329 95.5065 41.2918 97.7078 41.2918C100.215 41.2917 100.507 39.0249 100.507 38.2489V37.1618C100.507 37.1618 99.6398 38.5112 97.4854 38.5112C95.1496 38.5112 92.3739 36.522 92.3739 33.1307C92.3739 29.7395 94.9876 27.7998 97.5125 27.7292C99.5348 27.6727 100.507 29.0633 100.507 29.0633V28.0726ZM97.6764 36.4756C99.307 36.4756 100.629 34.9908 100.629 33.1593C100.629 31.3278 99.307 29.8431 97.6764 29.8431C96.0457 29.8431 94.7238 31.3278 94.7238 33.1593C94.7238 34.9908 96.0457 36.4756 97.6764 36.4756Z" fill="black"/>
<path fill-rule="evenodd" clip-rule="evenodd" d="M85.9269 38.523C82.921 38.523 80.4842 36.1063 80.4842 33.1253C80.4842 30.1442 82.921 27.7275 85.9269 27.7275C88.9328 27.7275 91.3695 30.1442 91.3695 33.1253C91.3695 36.1063 88.9328 38.523 85.9269 38.523ZM85.8913 36.4062C87.5809 36.4062 88.9506 34.9373 88.9506 33.1253C88.9506 31.3132 87.5809 29.8443 85.8913 29.8443C84.2017 29.8443 82.832 31.3132 82.832 33.1253C82.832 34.9373 84.2017 36.4062 85.8913 36.4062Z" fill="black"/>
<path fill-rule="evenodd" clip-rule="evenodd" d="M74.1515 38.523C71.1456 38.523 68.7088 36.1063 68.7088 33.1253C68.7088 30.1442 71.1456 27.7275 74.1515 27.7275C77.1574 27.7275 79.5941 30.1442 79.5941 33.1253C79.5941 36.1063 77.1574 38.523 74.1515 38.523ZM74.1159 36.4062C75.8055 36.4062 77.1752 34.9373 77.1752 33.1253C77.1752 31.3132 75.8055 29.8443 74.1159 29.8443C72.4263 29.8443 71.0566 31.3132 71.0566 33.1253C71.0566 34.9373 72.4263 36.4062 74.1159 36.4062Z" fill="black"/>
<path fill-rule="evenodd" clip-rule="evenodd" d="M65.7845 29.4387H67.8835C67.8837 29.4666 67.8839 29.4946 67.8839 29.5226C68.6734 35.2723 64.725 38.583 59.991 38.5407C55.3348 38.5341 51.5602 34.7973 51.5602 30.1795C51.5602 25.5618 55.3348 21.8184 59.991 21.8184C62.4248 21.8184 64.4708 22.6617 65.8694 24.1261L64.2251 25.7569C63.1995 24.7169 61.7428 24.1468 60.0621 24.1468C56.7026 24.1468 53.9791 26.8477 53.9791 30.1795C53.9791 33.5113 56.7026 36.2123 60.0621 36.2123C62.9769 36.2123 65.1582 34.7624 65.6815 31.6966H60.0977V29.4387H65.7845Z" fill="black"/>
<path fill-rule="evenodd" clip-rule="evenodd" d="M37.7266 28.0279L17.9676 39.3346C16.2392 40.3236 14.0363 39.7243 13.0472 37.9959C12.7352 37.4506 12.5711 36.8333 12.5711 36.2051V13.592C12.5711 11.6007 14.1854 9.98633 16.1768 9.98633C16.805 9.98633 17.4223 10.1505 17.9676 10.4625L37.7266 21.7688C39.455 22.7578 40.0544 24.9607 39.0654 26.6892C38.7463 27.2467 38.2842 27.7089 37.7266 28.0279Z" fill="url(#paint0_linear_1_1081)"/>
<path fill-rule="evenodd" clip-rule="evenodd" d="M12.4613 8.85205L28.4423 24.6402L12.2549 41.0523L12.4613 8.85205Z" fill="url(#paint1_linear_1_1081)"/>
<path fill-rule="evenodd" clip-rule="evenodd" d="M9.17499 5.60205L28.4404 24.645L34.1682 19.2136L9.17499 5.60205Z" fill="url(#paint2_linear_1_1081)"/>
<path fill-rule="evenodd" clip-rule="evenodd" d="M28.443 24.6411L37.2117 33.4264L11.016 42.2117L28.443 24.6411Z" fill="url(#paint3_linear_1_1081)"/>
<path d="M60.31 15.1C59.8033 15.1 59.3667 15.0433 59 14.93C58.64 14.8167 58.3433 14.6667 58.11 14.48C57.8767 14.2933 57.7 14.0867 57.58 13.86C57.4667 13.6267 57.3967 13.3967 57.37 13.17C57.3633 13.11 57.3833 13.06 57.43 13.02C57.4767 12.98 57.53 12.96 57.59 12.96H58.87C58.95 12.96 59.01 12.9733 59.05 13C59.0967 13.0267 59.14 13.0733 59.18 13.14C59.2533 13.3 59.3767 13.43 59.55 13.53C59.73 13.6233 59.9733 13.67 60.28 13.67C60.52 13.67 60.7267 13.64 60.9 13.58C61.0733 13.52 61.2067 13.4333 61.3 13.32C61.4 13.2 61.45 13.06 61.45 12.9C61.45 12.64 61.3533 12.4433 61.16 12.31C60.9667 12.1767 60.6933 12.11 60.34 12.11H59.61C59.5367 12.11 59.4767 12.0867 59.43 12.04C59.3833 11.9867 59.36 11.9233 59.36 11.85V11.05C59.36 10.9767 59.3833 10.9133 59.43 10.86C59.4767 10.8067 59.5367 10.78 59.61 10.78H60.33C60.6033 10.78 60.8267 10.7233 61 10.61C61.1733 10.49 61.26 10.3067 61.26 10.06C61.26 9.92 61.22 9.79667 61.14 9.69C61.0667 9.57667 60.9567 9.49 60.81 9.43C60.67 9.37 60.4967 9.34 60.29 9.34C59.9967 9.34 59.76 9.38667 59.58 9.48C59.4067 9.57333 59.2967 9.70667 59.25 9.88C59.2167 9.94 59.18 9.98667 59.14 10.02C59.1 10.0467 59.0433 10.06 58.97 10.06H57.65C57.59 10.06 57.5367 10.04 57.49 10C57.45 9.95333 57.4333 9.9 57.44 9.84C57.46 9.60667 57.5267 9.37333 57.64 9.14C57.76 8.90667 57.93 8.7 58.15 8.52C58.3767 8.33333 58.67 8.18333 59.03 8.07C59.39 7.95667 59.8233 7.9 60.33 7.9C60.9033 7.9 61.3933 7.99333 61.8 8.18C62.2133 8.36 62.5333 8.6 62.76 8.9C62.9867 9.2 63.1 9.53 63.1 9.89C63.1 10.0567 63.0767 10.23 63.03 10.41C62.9833 10.5833 62.9033 10.75 62.79 10.91C62.6833 11.0633 62.5233 11.2 62.31 11.32C62.5633 11.44 62.76 11.59 62.9 11.77C63.0467 11.95 63.15 12.1433 63.21 12.35C63.2767 12.5567 63.31 12.7633 63.31 12.97C63.31 13.3967 63.1867 13.77 62.94 14.09C62.7 14.4033 62.3567 14.65 61.91 14.83C61.4633 15.01 60.93 15.1 60.31 15.1ZM65.859 15.1C65.499 15.1 65.1757 15.0333 64.889 14.9C64.609 14.76 64.3857 14.5733 64.219 14.34C64.0523 14.1067 63.969 13.8433 63.969 13.55C63.969 13.0767 64.1623 12.7033 64.549 12.43C64.9357 12.15 65.449 11.96 66.089 11.86L67.339 11.67V11.53C67.339 11.29 67.289 11.1067 67.189 10.98C67.089 10.8533 66.9057 10.79 66.639 10.79C66.4523 10.79 66.299 10.8267 66.179 10.9C66.0657 10.9733 65.9757 11.0733 65.909 11.2C65.849 11.2867 65.7657 11.33 65.659 11.33H64.539C64.4657 11.33 64.409 11.31 64.369 11.27C64.329 11.2233 64.3123 11.17 64.319 11.11C64.319 10.99 64.3623 10.8533 64.449 10.7C64.5423 10.54 64.6823 10.3833 64.869 10.23C65.0557 10.0767 65.2957 9.95 65.589 9.85C65.8823 9.75 66.2357 9.7 66.649 9.7C67.0823 9.7 67.4523 9.75 67.759 9.85C68.0657 9.95 68.3123 10.09 68.499 10.27C68.6923 10.45 68.8357 10.6633 68.929 10.91C69.0223 11.15 69.069 11.4167 69.069 11.71V14.75C69.069 14.8233 69.0423 14.8833 68.989 14.93C68.9423 14.9767 68.8857 15 68.819 15H67.659C67.5857 15 67.5257 14.9767 67.479 14.93C67.4323 14.8833 67.409 14.8233 67.409 14.75V14.4C67.3223 14.5267 67.2057 14.6433 67.059 14.75C66.9123 14.8567 66.739 14.94 66.539 15C66.3457 15.0667 66.119 15.1 65.859 15.1ZM66.329 13.96C66.5223 13.96 66.6957 13.92 66.849 13.84C67.009 13.7533 67.1323 13.6233 67.219 13.45C67.3123 13.27 67.359 13.0467 67.359 12.78V12.64L66.509 12.79C66.1957 12.8433 65.9657 12.9267 65.819 13.04C65.679 13.1467 65.609 13.2733 65.609 13.42C65.609 13.5333 65.6423 13.63 65.709 13.71C65.7757 13.79 65.8623 13.8533 65.969 13.9C66.0757 13.94 66.1957 13.96 66.329 13.96ZM70.4474 15C70.3741 15 70.3141 14.9767 70.2674 14.93C70.2208 14.8833 70.1974 14.8233 70.1974 14.75V10.05C70.1974 9.97667 70.2208 9.91667 70.2674 9.87C70.3141 9.82333 70.3741 9.8 70.4474 9.8H72.7874C73.5808 9.8 74.1574 9.93333 74.5174 10.2C74.8841 10.4667 75.0674 10.8267 75.0674 11.28C75.0674 11.5333 75.0174 11.74 74.9174 11.9C74.8174 12.06 74.6841 12.1933 74.5174 12.3C74.7374 12.4133 74.9108 12.57 75.0374 12.77C75.1641 12.97 75.2274 13.2 75.2274 13.46C75.2274 13.94 75.0408 14.3167 74.6674 14.59C74.2941 14.8633 73.7141 15 72.9274 15H70.4474ZM71.8174 13.93H72.8374C73.0441 13.93 73.2108 13.8933 73.3374 13.82C73.4641 13.74 73.5274 13.6133 73.5274 13.44C73.5274 13.2667 73.4674 13.1433 73.3474 13.07C73.2341 12.99 73.0641 12.95 72.8374 12.95H71.8174V13.93ZM71.8174 11.83H72.8174C73.0241 11.83 73.1874 11.79 73.3074 11.71C73.4341 11.6233 73.4974 11.4967 73.4974 11.33C73.4974 11.1567 73.4341 11.0367 73.3074 10.97C73.1874 10.9033 73.0241 10.87 72.8174 10.87H71.8174V11.83ZM77.8219 15.1C77.4619 15.1 77.1385 15.0333 76.8519 14.9C76.5719 14.76 76.3485 14.5733 76.1819 14.34C76.0152 14.1067 75.9319 13.8433 75.9319 13.55C75.9319 13.0767 76.1252 12.7033 76.5119 12.43C76.8985 12.15 77.4119 11.96 78.0519 11.86L79.3019 11.67V11.53C79.3019 11.29 79.2519 11.1067 79.1519 10.98C79.0519 10.8533 78.8685 10.79 78.6019 10.79C78.4152 10.79 78.2619 10.8267 78.1419 10.9C78.0285 10.9733 77.9385 11.0733 77.8719 11.2C77.8119 11.2867 77.7285 11.33 77.6219 11.33H76.5019C76.4285 11.33 76.3719 11.31 76.3319 11.27C76.2919 11.2233 76.2752 11.17 76.2819 11.11C76.2819 10.99 76.3252 10.8533 76.4119 10.7C76.5052 10.54 76.6452 10.3833 76.8319 10.23C77.0185 10.0767 77.2585 9.95 77.5519 9.85C77.8452 9.75 78.1985 9.7 78.6119 9.7C79.0452 9.7 79.4152 9.75 79.7219 9.85C80.0285 9.95 80.2752 10.09 80.4619 10.27C80.6552 10.45 80.7985 10.6633 80.8919 10.91C80.9852 11.15 81.0319 11.4167 81.0319 11.71V14.75C81.0319 14.8233 81.0052 14.8833 80.9519 14.93C80.9052 14.9767 80.8485 15 80.7819 15H79.6219C79.5485 15 79.4885 14.9767 79.4419 14.93C79.3952 14.8833 79.3719 14.8233 79.3719 14.75V14.4C79.2852 14.5267 79.1685 14.6433 79.0219 14.75C78.8752 14.8567 78.7019 14.94 78.5019 15C78.3085 15.0667 78.0819 15.1 77.8219 15.1ZM78.2919 13.96C78.4852 13.96 78.6585 13.92 78.8119 13.84C78.9719 13.7533 79.0952 13.6233 79.1819 13.45C79.2752 13.27 79.3219 13.0467 79.3219 12.78V12.64L78.4719 12.79C78.1585 12.8433 77.9285 12.9267 77.7819 13.04C77.6419 13.1467 77.5719 13.2733 77.5719 13.42C77.5719 13.5333 77.6052 13.63 77.6719 13.71C77.7385 13.79 77.8252 13.8533 77.9319 13.9C78.0385 13.94 78.1585 13.96 78.2919 13.96ZM82.4103 15C82.337 15 82.277 14.9767 82.2303 14.93C82.1836 14.8833 82.1603 14.8233 82.1603 14.75V10.05C82.1603 9.97667 82.1836 9.91667 82.2303 9.87C82.277 9.82333 82.337 9.8 82.4103 9.8H83.5903C83.657 9.8 83.7136 9.82333 83.7603 9.87C83.8136 9.91667 83.8403 9.97667 83.8403 10.05V11.71H85.6403V10.05C85.6403 9.97667 85.6636 9.91667 85.7103 9.87C85.757 9.82333 85.817 9.8 85.8903 9.8H87.0703C87.137 9.8 87.1936 9.82333 87.2403 9.87C87.2936 9.91667 87.3203 9.97667 87.3203 10.05V14.75C87.3203 14.8233 87.2936 14.8833 87.2403 14.93C87.1936 14.9767 87.137 15 87.0703 15H85.8903C85.817 15 85.757 14.9767 85.7103 14.93C85.6636 14.8833 85.6403 14.8233 85.6403 14.75V13.02H83.8403V14.75C83.8403 14.8233 83.8136 14.8833 83.7603 14.93C83.7136 14.9767 83.657 15 83.5903 15H82.4103ZM90.1073 15C90.0406 15 89.9806 14.9767 89.9273 14.93C89.8806 14.8833 89.8573 14.8233 89.8573 14.75V11.11H88.3373C88.2706 11.11 88.2106 11.0867 88.1573 11.04C88.1106 10.9933 88.0873 10.9333 88.0873 10.86V10.05C88.0873 9.97667 88.1106 9.91667 88.1573 9.87C88.2106 9.82333 88.2706 9.8 88.3373 9.8H93.0373C93.1039 9.8 93.1606 9.82333 93.2073 9.87C93.2606 9.91667 93.2873 9.97667 93.2873 10.05V10.86C93.2873 10.9333 93.2606 10.9933 93.2073 11.04C93.1606 11.0867 93.1039 11.11 93.0373 11.11H91.5173V14.75C91.5173 14.8233 91.4939 14.8833 91.4473 14.93C91.4006 14.9767 91.3406 15 91.2673 15H90.1073ZM95.5758 15.1C95.2158 15.1 94.8924 15.0333 94.6058 14.9C94.3258 14.76 94.1024 14.5733 93.9358 14.34C93.7691 14.1067 93.6858 13.8433 93.6858 13.55C93.6858 13.0767 93.8791 12.7033 94.2658 12.43C94.6524 12.15 95.1658 11.96 95.8058 11.86L97.0558 11.67V11.53C97.0558 11.29 97.0058 11.1067 96.9058 10.98C96.8058 10.8533 96.6224 10.79 96.3558 10.79C96.1691 10.79 96.0158 10.8267 95.8958 10.9C95.7824 10.9733 95.6924 11.0733 95.6258 11.2C95.5658 11.2867 95.4824 11.33 95.3758 11.33H94.2558C94.1824 11.33 94.1258 11.31 94.0858 11.27C94.0458 11.2233 94.0291 11.17 94.0358 11.11C94.0358 10.99 94.0791 10.8533 94.1658 10.7C94.2591 10.54 94.3991 10.3833 94.5858 10.23C94.7724 10.0767 95.0124 9.95 95.3058 9.85C95.5991 9.75 95.9524 9.7 96.3658 9.7C96.7991 9.7 97.1691 9.75 97.4758 9.85C97.7824 9.95 98.0291 10.09 98.2158 10.27C98.4091 10.45 98.5524 10.6633 98.6458 10.91C98.7391 11.15 98.7858 11.4167 98.7858 11.71V14.75C98.7858 14.8233 98.7591 14.8833 98.7058 14.93C98.6591 14.9767 98.6024 15 98.5358 15H97.3758C97.3024 15 97.2424 14.9767 97.1958 14.93C97.1491 14.8833 97.1258 14.8233 97.1258 14.75V14.4C97.0391 14.5267 96.9224 14.6433 96.7758 14.75C96.6291 14.8567 96.4558 14.94 96.2558 15C96.0624 15.0667 95.8358 15.1 95.5758 15.1ZM96.0458 13.96C96.2391 13.96 96.4124 13.92 96.5658 13.84C96.7258 13.7533 96.8491 13.6233 96.9358 13.45C97.0291 13.27 97.0758 13.0467 97.0758 12.78V12.64L96.2258 12.79C95.9124 12.8433 95.6824 12.9267 95.5358 13.04C95.3958 13.1467 95.3258 13.2733 95.3258 13.42C95.3258 13.5333 95.3591 13.63 95.4258 13.71C95.4924 13.79 95.5791 13.8533 95.6858 13.9C95.7924 13.94 95.9124 13.96 96.0458 13.96ZM99.7342 15C99.6676 15 99.6142 14.9833 99.5742 14.95C99.5342 14.91 99.5142 14.86 99.5142 14.8C99.5142 14.76 99.5276 14.7167 99.5542 14.67L101.164 12.31L99.7842 10.14C99.7776 10.12 99.7676 10.0967 99.7542 10.07C99.7409 10.0433 99.7342 10.02 99.7342 10C99.7342 9.94 99.7542 9.89333 99.7942 9.86C99.8409 9.82 99.8942 9.8 99.9542 9.8H101.234C101.314 9.8 101.374 9.82 101.414 9.86C101.461 9.89333 101.494 9.92667 101.514 9.96L102.604 11.71H103.064V10.05C103.064 9.97667 103.088 9.91667 103.134 9.87C103.188 9.82333 103.248 9.8 103.314 9.8H104.474C104.548 9.8 104.608 9.82333 104.654 9.87C104.701 9.91667 104.724 9.97667 104.724 10.05V11.71H105.184L106.274 9.96C106.294 9.92667 106.328 9.89333 106.374 9.86C106.421 9.82 106.481 9.8 106.554 9.8H107.834C107.894 9.8 107.944 9.82 107.984 9.86C108.031 9.89333 108.054 9.94 108.054 10C108.054 10.02 108.048 10.0433 108.034 10.07C108.028 10.0967 108.018 10.12 108.004 10.14L106.624 12.31L108.234 14.67C108.261 14.71 108.274 14.7533 108.274 14.8C108.274 14.86 108.254 14.91 108.214 14.95C108.174 14.9833 108.121 15 108.054 15H106.644C106.558 15 106.491 14.98 106.444 14.94C106.404 14.9 106.374 14.8667 106.354 14.84L105.164 13.02H104.724V14.75C104.724 14.8233 104.701 14.8833 104.654 14.93C104.608 14.9767 104.548 15 104.474 15H103.314C103.248 15 103.188 14.9767 103.134 14.93C103.088 14.8833 103.064 14.8233 103.064 14.75V13.02H102.624L101.434 14.84C101.421 14.8667 101.391 14.9 101.344 14.94C101.298 14.98 101.231 15 101.144 15H99.7342ZM109.295 15C109.228 15 109.172 14.9767 109.125 14.93C109.078 14.8833 109.055 14.8267 109.055 14.76V10.05C109.055 9.97667 109.078 9.91667 109.125 9.87C109.172 9.82333 109.232 9.8 109.305 9.8H110.485C110.552 9.8 110.608 9.82333 110.655 9.87C110.708 9.91667 110.735 9.97667 110.735 10.05V13.7L110.285 13.48L112.755 9.96C112.788 9.91333 112.828 9.87667 112.875 9.85C112.922 9.81667 112.975 9.8 113.035 9.8H114.105C114.172 9.8 114.228 9.82333 114.275 9.87C114.322 9.91667 114.345 9.97333 114.345 10.04V14.75C114.345 14.8233 114.322 14.8833 114.275 14.93C114.228 14.9767 114.168 15 114.095 15H112.915C112.842 15 112.782 14.9767 112.735 14.93C112.688 14.8833 112.665 14.8233 112.665 14.75V11.21L113.125 11.3L110.635 14.84C110.608 14.8867 110.572 14.9267 110.525 14.96C110.478 14.9867 110.422 15 110.355 15H109.295ZM117.002 15C116.935 15 116.875 14.9767 116.822 14.93C116.775 14.8833 116.752 14.8233 116.752 14.75V11.11H115.232C115.165 11.11 115.105 11.0867 115.052 11.04C115.005 10.9933 114.982 10.9333 114.982 10.86V10.05C114.982 9.97667 115.005 9.91667 115.052 9.87C115.105 9.82333 115.165 9.8 115.232 9.8H119.932C119.998 9.8 120.055 9.82333 120.102 9.87C120.155 9.91667 120.182 9.97667 120.182 10.05V10.86C120.182 10.9333 120.155 10.9933 120.102 11.04C120.055 11.0867 119.998 11.11 119.932 11.11H118.412V14.75C118.412 14.8233 118.388 14.8833 118.342 14.93C118.295 14.9767 118.235 15 118.162 15H117.002ZM121.15 15C121.084 15 121.027 14.9767 120.98 14.93C120.934 14.8833 120.91 14.8267 120.91 14.76V10.05C120.91 9.97667 120.934 9.91667 120.98 9.87C121.027 9.82333 121.087 9.8 121.16 9.8H122.34C122.407 9.8 122.464 9.82333 122.51 9.87C122.564 9.91667 122.59 9.97667 122.59 10.05V13.7L122.14 13.48L124.61 9.96C124.644 9.91333 124.684 9.87667 124.73 9.85C124.777 9.81667 124.83 9.8 124.89 9.8H125.96C126.027 9.8 126.084 9.82333 126.13 9.87C126.177 9.91667 126.2 9.97333 126.2 10.04V14.75C126.2 14.8233 126.177 14.8833 126.13 14.93C126.084 14.9767 126.024 15 125.95 15H124.77C124.697 15 124.637 14.9767 124.59 14.93C124.544 14.8833 124.52 14.8233 124.52 14.75V11.21L124.98 11.3L122.49 14.84C122.464 14.8867 122.427 14.9267 122.38 14.96C122.334 14.9867 122.277 15 122.21 15H121.15ZM131.596 15.1C131.13 15.1 130.743 15.05 130.436 14.95C130.136 14.85 129.896 14.72 129.716 14.56C129.536 14.4 129.406 14.2333 129.326 14.06C129.253 13.88 129.206 13.72 129.186 13.58C129.18 13.5267 129.196 13.4833 129.236 13.45C129.276 13.4167 129.32 13.4 129.366 13.4H130.526C130.6 13.4 130.653 13.4133 130.686 13.44C130.726 13.4667 130.76 13.5033 130.786 13.55C130.846 13.6833 130.943 13.78 131.076 13.84C131.216 13.9 131.396 13.93 131.616 13.93C131.77 13.93 131.903 13.91 132.016 13.87C132.136 13.83 132.226 13.77 132.286 13.69C132.346 13.61 132.376 13.51 132.376 13.39C132.376 13.2233 132.326 13.0967 132.226 13.01C132.126 12.9167 131.953 12.87 131.706 12.87H131.146C131.086 12.87 131.036 12.85 130.996 12.81C130.956 12.7633 130.936 12.71 130.936 12.65V12.08C130.936 12.02 130.956 11.97 130.996 11.93C131.036 11.8833 131.086 11.86 131.146 11.86H131.686C131.893 11.86 132.043 11.8233 132.136 11.75C132.23 11.6767 132.276 11.5633 132.276 11.41C132.276 11.3167 132.253 11.23 132.206 11.15C132.16 11.07 132.086 11.0067 131.986 10.96C131.886 10.9067 131.75 10.88 131.576 10.88C131.33 10.88 131.153 10.9167 131.046 10.99C130.946 11.0567 130.863 11.1633 130.796 11.31C130.77 11.3567 130.736 11.3933 130.696 11.42C130.663 11.4467 130.61 11.46 130.536 11.46H129.416C129.363 11.46 129.32 11.4433 129.286 11.41C129.253 11.3767 129.236 11.3333 129.236 11.28C129.256 11.1067 129.306 10.93 129.386 10.75C129.473 10.5633 129.606 10.39 129.786 10.23C129.966 10.07 130.203 9.94333 130.496 9.85C130.79 9.75 131.156 9.7 131.596 9.7C132.163 9.7 132.613 9.77 132.946 9.91C133.286 10.0433 133.53 10.2233 133.676 10.45C133.823 10.67 133.896 10.9133 133.896 11.18C133.896 11.4067 133.85 11.6133 133.756 11.8C133.663 11.9867 133.496 12.14 133.256 12.26C133.556 12.3733 133.763 12.5467 133.876 12.78C133.99 13.0133 134.046 13.2633 134.046 13.53C134.046 13.85 133.946 14.1267 133.746 14.36C133.553 14.5933 133.273 14.7767 132.906 14.91C132.54 15.0367 132.103 15.1 131.596 15.1Z" fill="black"/>
</g>
<defs>
<linearGradient id="paint0_linear_1_1081" x1="39.5421" y1="1501.24" x2="-1009.97" y2="1501.24" gradientUnits="userSpaceOnUse">
<stop stop-color="#FBDA09"/>
<stop offset="1" stop-color="#FFBC00"/>
</linearGradient>
<linearGradient id="paint1_linear_1_1081" x1="12.2549" y1="1891.78" x2="1198.51" y2="1724.92" gradientUnits="userSpaceOnUse">
<stop stop-color="#01E2FF"/>
<stop offset="1" stop-color="#01C4FF"/>
</linearGradient>
<linearGradient id="paint2_linear_1_1081" x1="516.065" y1="388.403" x2="1682.74" y2="1919.15" gradientUnits="userSpaceOnUse">
<stop stop-color="#28D781"/>
<stop offset="1" stop-color="#02F076"/>
</linearGradient>
<linearGradient id="paint3_linear_1_1081" x1="1962.29" y1="330.899" x2="966.702" y2="2031.31" gradientUnits="userSpaceOnUse">
<stop stop-color="#F2414E"/>
<stop offset="1" stop-color="#E02554"/>
</linearGradient>
<clipPath id="clip0_1_1081">
<rect width="170" height="50" fill="white"/>
</clipPath>
</defs>
</svg>
